# AST/ASF file generated using VICON BodyLanguage
# -----------------------------------------------
:version 1.10
:name VICON
:units
  mass 1.0
  length 0.45
  angle deg
:documentation
   .ast/.asf automatically generated from VICON data using
   VICON BodyBuilder and BodyLanguage model FoxedUp or BRILLIANT.MOD
:root
   order TX TY TZ RX RY RZ
   axis XYZ
   position 0 0 0  
   orientation 0 0 0 
:bonedata
  begin
     id 1 
     name lhipjoint
     direction 0.611804 -0.747784 0.257906 
     length 2.29243 
     axis 0 0 0  XYZ
  end
  begin
     id 2 
     name lfemur
     direction 0.34202 -0.939693 0  
     length 7.31159  
     axis 0 0 20  XYZ
    dof rx ry rz
    limits (-160.0 20.0)
           (-70.0 70.0)
           (-60.0 70.0)
  end
  begin
     id 3 
     name ltibia
     direction 0.34202 -0.939693 0   
     length 7.33391   
     axis 0 0 20   XYZ
    dof rx
    limits (-10.0 170.0)
  end
  begin
     id 4 
     name lfoot
     direction 0.122263 -0.335914 0.933924   
     length 1.76083   
     axis -90 7.62852e-016 20   XYZ
    dof rx rz
    limits (-45.0 90.0)
           (-70.0 20.0)
  end
  begin
     id 5 
     name ltoes
     direction 1.53533e-011 -4.2177e-011 1   
     length 0.879206   
     axis -90 7.62852e-016 20   XYZ
    dof rx
    limits (-90.0 20.0)
  end
  begin
     id 6 
     name rhipjoint
     direction -0.646469 -0.721248 0.248754   
     length 2.37677  
     axis 0 0 0  XYZ 
  end
  begin
     id 7 
     name rfemur
     direction -0.34202 -0.939693 0   
     length 7.18623   
     axis 0 0 -20   XYZ
    dof rx ry rz
    limits (-160.0 20.0)
           (-70.0 70.0)
           (-70.0 60.0)
  end
  begin
     id 8 
     name rtibia
     direction -0.34202 -0.939693 0   
     length 7.36567   
     axis 0 0 -20   XYZ
    dof rx
    limits (-10.0 170.0)
 end
 begin
     id 9 
     name rfoot
     direction -0.126681 -0.348054 0.928876   
     length 1.71902  
     axis -90 -7.62852e-016 -20   XYZ
    dof rx rz
    limits (-45.0 90.0)
           (-20.0 70.0)
  end
  begin
     id 10 
     name rtoes
     direction -1.53551e-011 -4.21898e-011 1   
     length 0.857792   
     axis -90 -7.62852e-016 -20   XYZ
    dof rx
    limits (-90.0 20.0)
  end
  begin
     id 11 
     name lowerback
     direction 0.0106509 0.999778 0.0181844   
     length 2.07668   
     axis 0 0 0   XYZ
    dof rx ry rz
    limits (-20.0 45.0)
           (-30.0 30.0)
           (-30.0 30.0)
  end
  begin
     id 12 
     name upperback
     direction -0.00456018 0.999989 -0.000590935   
     length 2.08011   
     axis 0 0 0   XYZ
    dof rx ry rz
    limits (-20.0 45.0)
           (-30.0 30.0)
           (-30.0 30.0)
  end
  begin
     id 13 
     name thorax
     direction -0.00910382 0.999916 -0.00923765   
     length 2.07397   
     axis 0 0 0   XYZ
    dof rx ry rz
    limits (-20.0 45.0)
           (-30.0 30.0)
           (-30.0 30.0)
  end
  begin
     id 14 
     name lowerneck
     direction 0.00171967 0.99778 0.0665733   
     length 1.67556   
     axis 0 0 0   XYZ
    dof rx ry rz
    limits (-20.0 45.0)
           (-30.0 30.0)
           (-30.0 30.0)
  end
  begin
     id 15 
     name upperneck
     direction -0.0143166 0.991302 -0.130828   
     length 1.68462   
     axis 0 0 0   XYZ
    dof rx ry rz
    limits (-20.0 45.0)
           (-30.0 30.0)
           (-30.0 30.0)
  end
  begin
     id 16
     name head
     direction -0.00606378 0.998665 -0.0512995  
     length 1.69269  
     axis 0 0 0   XYZ
    dof rx ry rz
    limits (-20.0 45.0)
           (-30.0 30.0)
           (-30.0 30.0)
  end
  begin
     id 17 
     name lclavicle
     direction 0.9638 0.179341 0.197297  
     length 4.12888  
     axis 0 0 0   XYZ
    dof ry rz
    limits (-20.0 10.0)
           (0.0 20.0)
  end
  begin
     id 18 
     name lhumerus
     direction 1 -4.48972e-011 -2.47351e-027   
     length 5.01834   
     axis -180 -30 -90   XYZ
    dof rx ry rz
    limits (-60.0 90.0)
           (-90.0 90.0)
           (-90.0 90.0)
  end
  begin
     id 19
     name lradius
     direction 1 -4.48965e-011 1.51591e-026   
     length 3.4869   
     axis -180 -30 -90   XYZ
    dof rx
    limits (-10.0 170.0)
  end
  begin
     id 20
     name lwrist
     direction 1 -4.48957e-011 2.70032e-026   
     length 1.74345   
     axis -1.81515e-014 90 90   XYZ
    dof ry
    limits (-180.0 0.0)
 end
  begin
     id 21 
     name lhand
     direction 1 -4.48951e-011 5.40064e-026   
     length 0.76799   
     axis -3.44607e-014 90 90   XYZ
    dof rx rz
    limits (-90.0 90.0)
           (-45.0 45.0)
  end
  begin
     id 22 
     name lfingers
     direction 1 -4.48971e-011 1.08013e-025   
     length 0.619174   
     axis -6.89214e-014 90 90   XYZ
    dof rx
    limits (0.0 90.0)
  end
  begin
     id 23
     name lthumb
     direction 0.707107 -6.34931e-011 0.707107   
     length 0.889013   
     axis -90 45 2.85299e-015   XYZ
    dof rx rz
    limits (-45.0 45.0)
           (-45.0 45.0)
  end
  begin
     id 24 
     name rclavicle
     direction -0.961409 0.252588 0.109054   
     length 4.04305  
     axis 0 0 0   XYZ 
    dof ry rz
    limits (-10.0 20.0)
           (-20.0 0.0)
  end
  begin
     id 25 
     name rhumerus
     direction -1 -4.4897e-011 1.33872e-017  
     length 4.70164   
     axis -180 30 90   XYZ
    dof rx ry rz
    limits (-90.0 60.0)
           (-90.0 90.0)
           (-90.0 90.0)
  end
  begin
     id 26 
     name rradius
     direction -1 -4.48954e-011 1.83844e-026   
     length 3.49911   
     axis -180 30 90   XYZ
    dof rx
    limits (-10.0 170.0)
  end
  begin
     id 27 
     name rwrist
     direction -1 -4.49008e-011 2.70032e-026   
     length 1.74955   
     axis -1.81515e-014 -90 -90   XYZ
    dof ry
    limits (-180.0 0.0)
  end
  begin
     id 28
     name rhand
     direction -1 -4.48916e-011 5.40064e-026   
     length 0.739335   
     axis -3.44607e-014 -90 -90   XYZ
    dof rx rz
    limits (-90.0 90.0)
           (-45.0 45.0)
  end
  begin
     id 29
     name rfingers
     direction -1 -4.48987e-011 1.08013e-025   
     length 0.596071   
     axis -6.89214e-014 -90 -90   XYZ
    dof rx
    limits (0.0 90.0)
  end
  begin
     id 30
     name rthumb
     direction -0.707107 -6.34935e-011 0.707107   
     length 0.855843   
     axis -90 -45 -2.85299e-015   XYZ
    dof rx rz
    limits (-45.0 45.0)
           (-45.0 45.0)
  end
:hierarchy
  begin
    root lhipjoint rhipjoint lowerback
    lhipjoint lfemur
    lfemur ltibia
    ltibia lfoot
    lfoot ltoes
    rhipjoint rfemur
    rfemur rtibia
    rtibia rfoot
    rfoot rtoes
    lowerback upperback
    upperback thorax
    thorax lowerneck lclavicle rclavicle
    lowerneck upperneck
    upperneck head
    lclavicle lhumerus
    lhumerus lradius
    lradius lwrist
    lwrist lhand lthumb
    lhand lfingers
    rclavicle rhumerus
    rhumerus rradius
    rradius rwrist
    rwrist rhand rthumb
    rhand rfingers
  end

#!OML:ASF I:\salsa\salsa 7_09\Patient 1\Session 1\dancermale.ASF
:FULLY-SPECIFIED
:DEGREES
840
root 7.99732 16.8358 4.78938 187.592 -6.85388 538.411
lowerback -4.06409 -6.35485 2.67105
upperback -0.720816 -8.60445 -0.00716103
thorax 1.12585 -4.29986 -1.87969
lowerneck -8.51568 5.98286 4.85114
upperneck 28.7787 12.764 -7.3119
head 11.5635 6.43355 -1.69322
rclavicle -4.27014e-014 5.46658e-015
rhumerus -59.8692 -11.9875 -69.4967
rradius 100.531
rwrist -23.1225
rhand -5.67062 -16.0711
rfingers 7.12502
rthumb 20.149 -45.0462
lclavicle -4.27014e-014 5.46658e-015
lhumerus -6.15259 4.84171 90.9933
lradius 62.0299
lwrist 57.3712
lhand -14.3649 56.2411
lfingers 7.12502
lthumb 11.7772 445.89
rfemur -12.3617 15.1777 27.7897
rtibia 32.8025
rfoot -28.2231 1.87694
rtoes 0.329669
lfemur -45.3751 9.44571 -17.1378
ltibia 56.267
lfoot -5.59271 -7.32919
ltoes -9.01243
841
root 7.88048 16.8329 4.6685 187.593 -4.43118 539
lowerback -4.30718 -6.07626 3.28289
upperback -0.710236 -8.27438 0.170348
thorax 1.22848 -4.13193 -2.04656
lowerneck -8.52921 6.02416 4.84022
upperneck 28.8197 12.8048 -7.3811
head 11.5909 6.42721 -1.71247
rclavicle 3.07744e-014 2.98177e-016
rhumerus -59.6808 -10.6294 -71.4797
rradius 99.7602
rwrist -23.0579
rhand -4.24322 -15.5487
rfingers 7.12502
rthumb 21.5204 -44.3731
lclavicle 3.07744e-014 2.98177e-016
lhumerus -4.31635 5.06489 89.9071
lradius 61.2818
lwrist 57.7309
lhand -15.3643 55.9973
lfingers 7.12502
lthumb 10.8134 445.699
rfemur -11.7743 16.0364 27.8936
rtibia 32.5475
rfoot -28.1037 3.64771
rtoes 1.68254
lfemur -45.3685 10.2129 -16.8772
ltibia 51.358
lfoot -4.38106 -9.58797
ltoes -9.61589
842
root 7.76078 16.8249 4.54067 187.509 -2.01291 539.583
lowerback -4.3876 -5.7798 3.92971
upperback -0.69408 -7.91911 0.309125
thorax 1.24279 -3.95305 -2.25104
lowerneck -8.52263 6.05748 4.8761
upperneck 28.8735 12.8097 -7.39371
head 11.6148 6.41663 -1.72486
rclavicle -5.61567e-014 1.55052e-014
rhumerus -59.6396 -9.38037 -73.3881
rradius 99.0803
rwrist -22.9118
rhand -3.35037 -15.0971
rfingers 7.12502
rthumb 22.3777 -43.821
lclavicle -5.61567e-014 1.55052e-014
lhumerus -2.47759 5.27343 88.8081
lradius 60.5376
lwrist 57.7118
lhand -15.88 55.775
lfingers 7.12502
lthumb 10.3159 445.502
rfemur -11.1726 16.5037 27.9599
rtibia 32.4353
rfoot -27.9184 5.65013
rtoes 2.63613
lfemur -45.0259 11.0151 -16.4983
ltibia 46.4963
lfoot -1.67646 -11.4381
ltoes -2.85553
843
root 7.63584 16.8173 4.40399 187.291 0.394232 539.948
lowerback -4.33583 -5.51285 4.39665
upperback -0.578056 -7.52905 0.333669
thorax 1.30083 -3.72853 -2.46513
lowerneck -8.46214 6.09417 5.07828
upperneck 28.6755 12.7571 -7.54961
head 11.5468 6.37677 -1.83129
rclavicle 9.79014e-014 -9.24349e-015
rhumerus -59.5444 -8.25603 -75.2554
rradius 98.4727
rwrist -22.6894
rhand -3.45909 -14.8877
rfingers 7.12502
rthumb 22.2733 -43.6242
lclavicle 9.79014e-014 -9.24349e-015
lhumerus -0.435603 5.66092 87.7796
lradius 59.6066
lwrist 57.141
lhand -15.3102 55.9711
lfingers 7.12502
lthumb 10.8656 445.67
rfemur -10.5734 16.5839 27.6895
rtibia 32.597
rfoot -27.8648 7.66654
rtoes 3.24239
lfemur -44.3329 11.6185 -16.2658
ltibia 42.2646
lfoot 1.14293 -11.6952
ltoes 3.55407
844
root 7.50574 16.8098 4.24713 186.799 2.93546 539.971
lowerback -4.11258 -5.18656 4.59448
upperback -0.392026 -7.10173 0.195797
thorax 1.35803 -3.51299 -2.68649
lowerneck -8.33405 6.16003 5.25291
upperneck 28.4388 12.717 -7.60301
head 11.4412 6.35345 -1.8975
rclavicle 8.22596e-014 -1.18277e-014
rhumerus -59.5088 -7.16632 -77.0149
rradius 97.9859
rwrist -22.2493
rhand -3.70839 -14.8584
rfingers 7.12502
rthumb 22.034 -43.6232
lclavicle 8.22596e-014 -1.18277e-014
lhumerus 1.58233 6.09447 86.8514
lradius 58.6182
lwrist 56.3665
lhand -14.721 56.0822
lfingers 7.12502
lthumb 11.4338 445.75
rfemur -9.77565 16.5795 26.9782
rtibia 32.9434
rfoot -27.8426 9.56395
rtoes 3.66914
lfemur -43.0445 11.9212 -16.2046
ltibia 38.624
lfoot 3.60543 -10.239
ltoes 4.65954
845
root 7.38383 16.803 4.09648 186.246 5.23293 539.935
lowerback -3.56301 -5.04058 4.63535
upperback -0.327217 -6.88491 0.0949976
thorax 1.1183 -3.41225 -2.75262
lowerneck -8.20487 6.31897 5.43024
upperneck 28.409 12.8689 -7.60032
head 11.4286 6.43023 -1.91301
rclavicle -6.0269e-014 1.58034e-014
rhumerus -59.5301 -6.04352 -78.6618
rradius 97.5572
rwrist -21.5646
rhand -3.63173 -14.632
rfingers 7.12502
rthumb 22.1076 -43.3881
lclavicle -6.0269e-014 1.58034e-014
lhumerus 3.39387 6.69201 85.9331
lradius 57.6316
lwrist 55.4296
lhand -14.6784 55.7334
lfingers 7.12502
lthumb 11.4749 445.399
rfemur -9.0506 16.4853 26.3512
rtibia 33.537
rfoot -27.6949 11.2677
rtoes 4.42782
lfemur -41.7733 12.1798 -16.2422
ltibia 36.0731
lfoot 5.14487 -8.60374
ltoes 4.97527
846
root 7.24043 16.801 3.93805 186.008 7.46513 540.186
lowerback -3.67913 -4.8996 4.99983
upperback 0.0219807 -6.73267 0.175787
thorax 1.52383 -3.31765 -2.89757
lowerneck -8.53201 6.56481 5.59445
upperneck 28.2514 13.1274 -7.82845
head 11.4862 6.49383 -1.97648
rclavicle -1.34639e-013 2.56432e-014
rhumerus -58.7906 -5.15237 -80.0206
rradius 97.065
rwrist -20.6988
rhand -3.12742 -14.1267
rfingers 7.12502
rthumb 22.5917 -42.8247
lclavicle -1.34639e-013 2.56432e-014
lhumerus 5.86576 7.43839 85.3806
lradius 56.4368
lwrist 54.2819
lhand -15.0272 55.4009
lfingers 7.12502
lthumb 11.1385 445.085
rfemur -8.92056 16.2833 25.8322
rtibia 34.5814
rfoot -27.4229 13.0506
rtoes 5.54381
lfemur -40.9236 12.405 -16.1603
ltibia 34.9742
lfoot 5.26624 -6.66081
ltoes 7.80745
847
root 7.12572 16.7874 3.74786 185.6 10.0634 539.964
lowerback -3.64707 -4.48266 4.76341
upperback 0.062996 -6.16755 0.0430952
thorax 1.60597 -3.03581 -2.88728
lowerneck -8.37664 6.57066 5.5836
upperneck 28.3536 13.101 -7.68667
head 11.4801 6.49736 -1.93483
rclavicle -1.19147e-014 -4.37326e-015
rhumerus -58.8849 -4.899 -80.9555
rradius 96.7859
rwrist -19.4643
rhand -2.17497 -13.8701
rfingers 7.12502
rthumb 23.5056 -42.454
lclavicle -1.19147e-014 -4.37326e-015
lhumerus 7.61974 7.51725 85.0527
lradius 55.2205
lwrist 53.2217
lhand -15.5227 55.6794
lfingers 7.12502
lthumb 10.6606 445.389
rfemur -8.66124 16.6448 24.9427
rtibia 35.8657
rfoot -26.9027 14.5257
rtoes 6.10052
lfemur -39.8687 13.497 -16.7514
ltibia 35.431
lfoot 3.84873 -4.75421
ltoes 5.1535
848
root 7.01484 16.7891 3.56351 184.558 12.6135 539.511
lowerback -2.71262 -4.12927 4.29853
upperback 0.0399102 -5.63247 -0.170878
thorax 1.12678 -2.78712 -2.75492
lowerneck -7.99698 6.54215 5.43685
upperneck 28.5923 13.1038 -7.45851
head 11.4681 6.53224 -1.84274
rclavicle 7.05686e-015 7.95139e-016
rhumerus -59.1643 -4.73991 -81.7251
rradius 96.5244
rwrist -18.0016
rhand -1.14602 -14.0745
rfingers 7.12502
rthumb 24.4922 -42.5284
lclavicle 7.05686e-015 7.95139e-016
lhumerus 9.03652 7.79864 84.9113
lradius 53.8515
lwrist 51.7609
lhand -15.7692 55.7836
lfingers 7.12502
lthumb 10.4228 445.505
rfemur -8.04669 16.9679 23.9228
rtibia 37.6055
rfoot -25.9501 16.2768
rtoes 7.25234
lfemur -38.167 14.4291 -17.2796
ltibia 37.046
lfoot 2.09885 -2.36698
ltoes 3.25393
